<?xml version="1.0" encoding="utf-8"?>
<!-- Generator: Adobe Illustrator 22.1.0, SVG Export Plug-In . SVG Version: 6.00 Build 0)  -->
<svg version="1.1" id="Layer_1" xmlns="http://www.w3.org/2000/svg" xmlns:xlink="http://www.w3.org/1999/xlink" x="0px" y="0px"
	 viewBox="0 0 500 500" style="enable-background:new 0 0 500 500;" xml:space="preserve">
<style type="text/css">
	.st0{clip-path:url(#SVGID_2_);}
	.st1{fill:none;stroke:#416B69;stroke-width:1.3087;stroke-miterlimit:10;}
	.st2{fill:none;stroke:#456563;stroke-width:1.5466;stroke-miterlimit:10;}
	.st3{fill:none;stroke:#495F5D;stroke-width:1.7845;stroke-miterlimit:10;}
	.st4{fill:none;stroke:#4C5857;stroke-width:2.0225;stroke-miterlimit:10;}
	.st5{fill:none;stroke:#505251;stroke-width:2.2604;stroke-miterlimit:10;}
	.st6{fill:none;stroke:#544C4B;stroke-width:2.4984;stroke-miterlimit:10;}
	.st7{fill:none;stroke:#584645;stroke-width:2.7363;stroke-miterlimit:10;}
	.st8{fill:none;stroke:#5C403F;stroke-width:2.9742;stroke-miterlimit:10;}
	.st9{fill:none;stroke:#603A39;stroke-width:3.2122;stroke-miterlimit:10;}
	.st10{fill:none;stroke:#633333;stroke-width:3.4501;stroke-miterlimit:10;}
	.st11{fill:none;stroke:#672D2D;stroke-width:3.6881;stroke-miterlimit:10;}
	.st12{fill:none;stroke:#6B2727;stroke-width:3.926;stroke-miterlimit:10;}
	.st13{fill:none;stroke:#612323;stroke-width:3.926;stroke-miterlimit:10;}
	.st14{fill:none;stroke:#582020;stroke-width:3.926;stroke-miterlimit:10;}
	.st15{fill:none;stroke:#4E1C1C;stroke-width:3.926;stroke-miterlimit:10;}
	.st16{fill:none;stroke:#441919;stroke-width:3.926;stroke-miterlimit:10;}
	.st17{fill:none;stroke:#3A1515;stroke-width:3.926;stroke-miterlimit:10;}
	.st18{fill:none;stroke:#311212;stroke-width:3.926;stroke-miterlimit:10;}
	.st19{fill:none;stroke:#270E0E;stroke-width:3.926;stroke-miterlimit:10;}
	.st20{fill:none;stroke:#1D0B0B;stroke-width:3.926;stroke-miterlimit:10;}
	.st21{fill:none;stroke:#130707;stroke-width:3.926;stroke-miterlimit:10;}
	.st22{fill:none;stroke:#0A0404;stroke-width:3.926;stroke-miterlimit:10;}
	.st23{fill:none;stroke:#000000;stroke-width:3.926;stroke-miterlimit:10;}
</style>
<g>
	<defs>
		<circle id="SVGID_1_" cx="250" cy="249.5" r="206.5"/>
	</defs>
	<clipPath id="SVGID_2_">
		<use xlink:href="#SVGID_1_"  style="overflow:visible;"/>
	</clipPath>
	<g class="st0">
		<path class="st1" d="M-13.2-1.7C10-18.7,59.1-49.6,127-53.9c14.8-0.9,53.9-2.1,99.9,13.4c57.3,19.3,70.4,45.9,108.8,62.6
			c33.9,14.7,89.1,22.4,178.9-17.9"/>
		<path class="st2" d="M-13.3,23.1C9.8,6.1,59-24.8,126.9-29.1c14.8-0.9,53.9-2.1,99.9,13.4C284,3.6,297.2,30.2,335.6,46.9
			c33.9,14.7,89.1,22.4,178.9-17.9"/>
		<path class="st3" d="M-13.4,47.9C9.7,30.9,58.9,0,126.7-4.3c14.8-0.9,53.9-2.1,99.9,13.4C283.9,28.4,297,55,335.5,71.7
			c33.9,14.7,89.1,22.4,178.9-17.9"/>
		<path class="st4" d="M-13.6,72.7c23.1-17,72.3-47.9,140.2-52.2c14.8-0.9,53.9-2.1,99.9,13.4c57.3,19.3,70.4,45.9,108.8,62.6
			c33.9,14.7,89.1,22.4,178.9-17.9"/>
		<path class="st5" d="M-13.7,97.5c23.1-17,72.3-47.9,140.2-52.2c14.8-0.9,53.9-2.1,99.9,13.4c57.3,19.3,70.4,45.9,108.8,62.6
			c33.9,14.7,89.1,22.4,178.9-17.9"/>
		<path class="st6" d="M-13.8,122.3c23.1-17,72.3-47.9,140.2-52.2c14.8-0.9,53.9-2.1,99.9,13.4c57.3,19.3,70.4,45.9,108.8,62.6
			c33.9,14.7,89.1,22.4,178.9-17.9"/>
		<path class="st7" d="M-14,147.1c23.1-17,72.3-47.9,140.2-52.2c14.8-0.9,53.9-2.1,99.9,13.4c57.3,19.3,70.4,45.9,108.8,62.6
			c33.9,14.7,89.1,22.4,178.9-17.9"/>
		<path class="st8" d="M-14.1,171.9C9,154.9,58.2,124,126,119.7c14.8-0.9,53.9-2.1,99.9,13.4c57.3,19.3,70.4,45.9,108.8,62.6
			c33.9,14.7,89.1,22.4,178.9-17.9"/>
		<path class="st9" d="M-14.2,196.7c23.1-17,72.3-47.9,140.2-52.2c14.8-0.9,53.9-2.1,99.9,13.4c57.3,19.3,70.4,45.9,108.8,62.6
			c33.9,14.7,89.1,22.4,178.9-17.9"/>
		<path class="st10" d="M-14.4,221.5c23.1-17,72.3-47.9,140.2-52.2c14.8-0.9,53.9-2.1,99.9,13.4c57.3,19.3,70.4,45.9,108.8,62.6
			c33.9,14.7,89.1,22.4,178.9-17.9"/>
		<path class="st11" d="M-14.5,246.3c23.1-17,72.3-47.9,140.2-52.2c14.8-0.9,53.9-2.1,99.9,13.4c57.3,19.3,70.4,45.9,108.8,62.6
			c33.9,14.7,89.1,22.4,178.9-17.9"/>
		<path class="st12" d="M-14.6,271.1c23.1-17,72.3-47.9,140.2-52.2c14.8-0.9,53.9-2.1,99.9,13.4c57.3,19.3,70.4,45.9,108.8,62.6
			c33.9,14.7,89.1,22.4,178.9-17.9"/>
		<path class="st13" d="M-14.6,295c23.1-17,69.4-46,137.3-50.3c14.8-0.9,56.6-3.6,102.7,11.5c58.4,19,72.3,42.9,110.7,59.6
			c33.9,14.7,87.2,25.4,177-14.9"/>
		<path class="st14" d="M-14.6,319c23.1-17,66.6-44.1,134.5-48.4c14.8-0.9,59.3-5.1,105.6,9.6c59.6,18.8,74.2,40,112.6,56.7
			c33.9,14.7,85.3,28.4,175.1-11.9"/>
		<path class="st15" d="M-14.6,342.9c23.1-17,63.8-42.2,131.6-46.5c14.8-0.9,62.1-6.6,108.4,7.7c60.8,18.5,76.1,37,114.5,53.7
			c33.9,14.7,83.4,31.4,173.2-8.9"/>
		<path class="st16" d="M-14.6,366.9c23.1-17,60.9-40.3,128.8-44.6c14.8-0.9,64.8-8.1,111.3,5.8c61.9,18.2,78,34,116.4,50.7
			c33.9,14.7,81.5,34.4,171.3-6"/>
		<path class="st17" d="M-14.6,390.9c23.1-17,58.1-38.4,125.9-42.7c14.8-0.9,67.5-9.5,114.1,3.9c63.1,18.1,79.9,31,118.3,47.7
			c33.9,14.7,79.6,37.3,169.4-3"/>
		<path class="st18" d="M-14.6,414.9c23.1-17,55.2-36.5,123.1-40.8c14.8-0.9,70.2-11,117,2c64.2,17.9,81.8,28,120.2,44.7
			c33.9,14.7,77.7,40.3,167.5,0"/>
		<path class="st19" d="M-14.6,438.9c23.1-17,52.4-34.6,120.2-38.9c14.8-0.9,73-12.5,119.8,0.1c65.4,17.5,83.7,25.1,122.1,41.7
			c33.9,14.7,75.8,43.3,165.6,3"/>
		<path class="st20" d="M-14.6,462.9c23.1-17,49.5-32.7,117.4-37c14.8-0.9,75.7-14,122.7-1.8c66.6,17.2,85.6,22.1,124,38.8
			c33.9,14.7,73.9,46.3,163.7,6"/>
		<path class="st21" d="M-14.6,487C8.5,470,32,456.2,99.9,451.9c14.8-0.9,78.5-15.5,125.5-3.7c67.7,16.9,87.5,19.1,125.9,35.8
			c33.9,14.7,72,49.3,161.8,8.9"/>
		<path class="st22" d="M-14.6,511C8.5,494,29.2,482.1,97,477.8c14.8-0.9,81.2-17,128.4-5.6c68.9,16.7,89.4,16.1,127.8,32.8
			c33.9,14.7,70.1,52.3,159.9,11.9"/>
		<path class="st23" d="M-14.6,535c23.1-17,41-27,108.8-31.3c14.8-0.9,83.9-18.5,131.2-7.5c70.1,16.4,91.3,13.1,129.7,29.8
			c33.9,14.7,68.2,55.2,158,14.9"/>
	</g>
	<g class="st0">
		<path class="st1" d="M599.8,16.5c23.1-17,72.3-47.9,140.2-52.2c14.8-0.9,53.9-2.1,99.9,13.4C897.1-3,910.3,23.7,948.7,40.4
			c33.9,14.7,89.1,22.4,178.9-17.9"/>
		<path class="st2" d="M599.7,41.3c23.1-17,72.3-47.9,140.2-52.2c14.8-0.9,53.9-2.1,99.9,13.4c57.3,19.3,70.4,45.9,108.8,62.6
			c33.9,14.7,89.1,22.4,178.9-17.9"/>
		<path class="st3" d="M599.5,66.1c23.1-17,72.3-47.9,140.2-52.2c14.8-0.9,53.9-2.1,99.9,13.4C896.8,46.6,910,73.3,948.4,90
			c33.9,14.7,89.1,22.4,178.9-17.9"/>
		<path class="st4" d="M599.4,90.9c23.1-17,72.3-47.9,140.2-52.2c14.8-0.9,53.9-2.1,99.9,13.4c57.3,19.3,70.4,45.9,108.8,62.6
			c33.9,14.7,89.1,22.4,178.9-17.9"/>
		<path class="st5" d="M599.2,115.7c23.1-17,72.3-47.9,140.2-52.2c14.8-0.9,53.9-2.1,99.9,13.4c57.3,19.3,70.4,45.9,108.8,62.6
			c33.9,14.7,89.1,22.4,178.9-17.9"/>
		<path class="st6" d="M599.1,140.5c23.1-17,72.3-47.9,140.2-52.2c14.8-0.9,53.9-2.1,99.9,13.4c57.3,19.3,70.4,45.9,108.8,62.6
			c33.9,14.7,89.1,22.4,178.9-17.9"/>
		<path class="st7" d="M599,165.3c23.1-17,72.3-47.9,140.2-52.2c14.8-0.9,53.9-2.1,99.9,13.4c57.3,19.3,70.4,45.9,108.8,62.6
			c33.9,14.7,89.1,22.4,178.9-17.9"/>
		<path class="st8" d="M598.8,190.1c23.1-17,72.3-47.9,140.2-52.2c14.8-0.9,53.9-2.1,99.9,13.4c57.3,19.3,70.4,45.9,108.8,62.6
			c33.9,14.7,89.1,22.4,178.9-17.9"/>
		<path class="st9" d="M598.7,214.9c23.1-17,72.3-47.9,140.2-52.2c14.8-0.9,53.9-2.1,99.9,13.4c57.3,19.3,70.4,45.9,108.8,62.6
			c33.9,14.7,89.1,22.4,178.9-17.9"/>
		<path class="st10" d="M598.6,239.7c23.1-17,72.3-47.9,140.2-52.2c14.8-0.9,53.9-2.1,99.9,13.4c57.3,19.3,70.4,45.9,108.8,62.6
			c33.9,14.7,89.1,22.4,178.9-17.9"/>
		<path class="st11" d="M598.4,264.5c23.1-17,72.3-47.9,140.2-52.2c14.8-0.9,53.9-2.1,99.9,13.4c57.3,19.3,70.4,45.9,108.8,62.6
			c33.9,14.7,89.1,22.4,178.9-17.9"/>
		<path class="st12" d="M598.3,289.3c23.1-17,72.3-47.9,140.2-52.2c14.8-0.9,53.9-2.1,99.9,13.4c57.3,19.3,70.4,45.9,108.8,62.6
			c33.9,14.7,89.1,22.4,178.9-17.9"/>
		<path class="st13" d="M598.3,313.3c23.1-17,69.4-46,137.3-50.3c14.8-0.9,56.6-3.6,102.7,11.5c58.4,19,72.3,42.9,110.7,59.6
			c33.9,14.7,87.2,25.4,177-14.9"/>
		<path class="st14" d="M598.3,337.2c23.1-17,66.6-44.1,134.5-48.4c14.8-0.9,59.3-5.1,105.6,9.6c59.6,18.8,74.2,40,112.6,56.7
			c33.9,14.7,85.3,28.4,175.1-11.9"/>
		<path class="st15" d="M598.3,361.2c23.1-17,63.8-42.2,131.6-46.5c14.8-0.9,62.1-6.6,108.4,7.7c60.8,18.5,76.1,37,114.5,53.7
			c33.9,14.7,83.4,31.4,173.2-8.9"/>
		<path class="st16" d="M598.3,385.1c23.1-17,60.9-40.3,128.8-44.6c14.8-0.9,64.8-8.1,111.3,5.8c61.9,18.2,78,34,116.4,50.7
			c33.9,14.7,81.5,34.4,171.3-6"/>
		<path class="st17" d="M598.3,409.1c23.1-17,58.1-38.4,125.9-42.7c14.8-0.9,67.5-9.5,114.1,3.9c63.1,18.1,79.9,31,118.3,47.7
			c33.9,14.7,79.6,37.3,169.4-3"/>
		<path class="st18" d="M598.3,433.1c23.1-17,55.2-36.5,123.1-40.8c14.8-0.9,70.2-11,117,2c64.2,17.9,81.8,28,120.2,44.7
			c33.9,14.7,77.7,40.3,167.5,0"/>
		<path class="st19" d="M598.3,457.2c23.1-17,52.4-34.6,120.2-38.9c14.8-0.9,73-12.5,119.8,0.1c65.4,17.5,83.7,25.1,122.1,41.7
			c33.9,14.7,75.8,43.3,165.6,3"/>
		<path class="st20" d="M598.3,481.2c23.1-17,49.5-32.7,117.4-37c14.8-0.9,75.7-14,122.7-1.8c66.6,17.2,85.6,22.1,124,38.8
			c33.9,14.7,73.9,46.3,163.7,6"/>
		<path class="st21" d="M598.3,505.2c23.1-17,46.7-30.8,114.5-35.1c14.8-0.9,78.5-15.5,125.5-3.7c67.7,16.9,87.5,19.1,125.9,35.8
			c33.9,14.7,72,49.3,161.8,8.9"/>
		<path class="st22" d="M598.3,529.3c23.1-17,43.8-28.9,111.7-33.2c14.8-0.9,81.2-17,128.4-5.6c68.9,16.7,89.4,16.1,127.8,32.8
			c33.9,14.7,70.1,52.3,159.9,11.9"/>
		<path class="st23" d="M598.3,553.3c23.1-17,41-27,108.8-31.3c14.8-0.9,83.9-18.5,131.2-7.5c70.1,16.4,91.3,13.1,129.7,29.8
			c33.9,14.7,68.2,55.2,158,14.9"/>
	</g>
	<g class="st0">
		<path class="st1" d="M610-4c23.1-17,72.3-47.9,140.2-52.2c14.8-0.9,53.9-2.1,99.9,13.4c57.3,19.3,70.4,45.9,108.8,62.6
			C992.8,34.6,1048,42.3,1137.9,2"/>
		<path class="st2" d="M609.9,20.8c23.1-17,72.3-47.9,140.2-52.2c14.8-0.9,53.9-2.1,99.9,13.4C907.2,1.3,920.4,28,958.8,44.7
			c33.9,14.7,89.1,22.4,178.9-17.9"/>
		<path class="st3" d="M609.8,45.6c23.1-17,72.3-47.9,140.2-52.2c14.8-0.9,53.9-2.1,99.9,13.4c57.3,19.3,70.4,45.9,108.8,62.6
			c33.9,14.7,89.1,22.4,178.9-17.9"/>
		<path class="st4" d="M609.6,70.4c23.1-17,72.3-47.9,140.2-52.2c14.8-0.9,53.9-2.1,99.9,13.4c57.3,19.3,70.4,45.9,108.8,62.6
			c33.9,14.7,89.1,22.4,178.9-17.9"/>
		<path class="st5" d="M609.5,95.2c23.1-17,72.3-47.9,140.2-52.2c14.8-0.9,53.9-2.1,99.9,13.4c57.3,19.3,70.4,45.9,108.8,62.6
			c33.9,14.7,89.1,22.4,178.9-17.9"/>
		<path class="st6" d="M609.4,120c23.1-17,72.3-47.9,140.2-52.2c14.8-0.9,53.9-2.1,99.9,13.4c57.3,19.3,70.4,45.9,108.8,62.6
			c33.9,14.7,89.1,22.4,178.9-17.9"/>
		<path class="st7" d="M609.2,144.8c23.1-17,72.3-47.9,140.2-52.2c14.8-0.9,53.9-2.1,99.9,13.4c57.3,19.3,70.4,45.9,108.8,62.6
			c33.9,14.7,89.1,22.4,178.9-17.9"/>
		<path class="st8" d="M609.1,169.6c23.1-17,72.3-47.9,140.2-52.2c14.8-0.9,53.9-2.1,99.9,13.4c57.3,19.3,70.4,45.9,108.8,62.6
			c33.9,14.7,89.1,22.4,178.9-17.9"/>
		<path class="st9" d="M609,194.4c23.1-17,72.3-47.9,140.2-52.2c14.8-0.9,53.9-2.1,99.9,13.4c57.3,19.3,70.4,45.9,108.8,62.6
			c33.9,14.7,89.1,22.4,178.9-17.9"/>
		<path class="st10" d="M608.8,219.2c23.1-17,72.3-47.9,140.2-52.2c14.8-0.9,53.9-2.1,99.9,13.4c57.3,19.3,70.4,45.9,108.8,62.6
			c33.9,14.7,89.1,22.4,178.9-17.9"/>
		<path class="st11" d="M608.7,244c23.1-17,72.3-47.9,140.2-52.2c14.8-0.9,53.9-2.1,99.9,13.4c57.3,19.3,70.4,45.9,108.8,62.6
			c33.9,14.7,89.1,22.4,178.9-17.9"/>
		<path class="st12" d="M608.6,268.8c23.1-17,72.3-47.9,140.2-52.2c14.8-0.9,53.9-2.1,99.9,13.4c57.3,19.3,70.4,45.9,108.8,62.6
			c33.9,14.7,89.1,22.4,178.9-17.9"/>
		<path class="st13" d="M608.6,292.8c23.1-17,69.4-46,137.3-50.3c14.8-0.9,56.6-3.6,102.7,11.5c58.4,19,72.3,42.9,110.7,59.6
			c33.9,14.7,87.2,25.4,177-14.9"/>
		<path class="st14" d="M608.6,316.7c23.1-17,66.6-44.1,134.5-48.4c14.8-0.9,59.3-5.1,105.6,9.6c59.6,18.8,74.2,40,112.6,56.7
			c33.9,14.7,85.3,28.4,175.1-11.9"/>
		<path class="st15" d="M608.6,340.7c23.1-17,63.8-42.2,131.6-46.5c14.8-0.9,62.1-6.6,108.4,7.7c60.8,18.5,76.1,37,114.5,53.7
			c33.9,14.7,83.4,31.4,173.2-8.9"/>
		<path class="st16" d="M608.6,364.6c23.1-17,60.9-40.3,128.8-44.6c14.8-0.9,64.8-8.1,111.3,5.8c61.9,18.2,78,34,116.4,50.7
			c33.9,14.7,81.5,34.4,171.3-6"/>
		<path class="st17" d="M608.6,388.6c23.1-17,58.1-38.4,125.9-42.7c14.8-0.9,67.5-9.5,114.1,3.9c63.1,18.1,79.9,31,118.3,47.7
			c33.9,14.7,79.6,37.3,169.4-3"/>
		<path class="st18" d="M608.6,412.6c23.1-17,55.2-36.5,123.1-40.8c14.8-0.9,70.2-11,117,2c64.2,17.9,81.8,28,120.2,44.7
			c33.9,14.7,77.7,40.3,167.5,0"/>
		<path class="st19" d="M608.6,436.6c23.1-17,52.4-34.6,120.2-38.9c14.8-0.9,73-12.5,119.8,0.1c65.4,17.5,83.7,25.1,122.1,41.7
			c33.9,14.7,75.8,43.3,165.6,3"/>
		<path class="st20" d="M608.6,460.7c23.1-17,49.5-32.7,117.4-37c14.8-0.9,75.7-14,122.7-1.8c66.6,17.2,85.6,22.1,124,38.8
			c33.9,14.7,73.9,46.3,163.7,6"/>
		<path class="st21" d="M608.6,484.7c23.1-17,46.7-30.8,114.5-35.1c14.8-0.9,78.5-15.5,125.5-3.7c67.7,16.9,87.5,19.1,125.9,35.8
			c33.9,14.7,72,49.3,161.8,8.9"/>
		<path class="st22" d="M608.6,508.8c23.1-17,43.8-28.9,111.7-33.2c14.8-0.9,81.2-17,128.4-5.6c68.9,16.7,89.4,16.1,127.8,32.8
			c33.9,14.7,70.1,52.3,159.9,11.9"/>
		<path class="st23" d="M608.6,532.7c23.1-17,41-27,108.8-31.3c14.8-0.9,83.9-18.5,131.2-7.5c70.1,16.4,91.3,13.1,129.7,29.8
			c33.9,14.7,68.2,55.2,158,14.9"/>
	</g>
</g>
</svg>
